<mxfile host="app.diagrams.net" agent="Mozilla/5.0 (Windows NT 10.0; Win64; x64) AppleWebKit/537.36 (KHTML, like Gecko) Chrome/134.0.0.0 Safari/537.36" version="26.0.2">
  <diagram name="Trang-1" id="9c7Z3RTWqPJepwJMNfdo">
    <mxGraphModel dx="841" dy="484" grid="0" gridSize="10" guides="1" tooltips="1" connect="1" arrows="1" fold="1" page="1" pageScale="1" pageWidth="827" pageHeight="1169" math="0" shadow="0">
      <root>
        <mxCell id="0" />
        <mxCell id="1" parent="0" />
        <mxCell id="v_JSXn-3_ZmPDUQv6Gb4-14" value="" style="edgeStyle=orthogonalEdgeStyle;rounded=0;orthogonalLoop=1;jettySize=auto;html=1;" parent="1" source="v_JSXn-3_ZmPDUQv6Gb4-1" target="v_JSXn-3_ZmPDUQv6Gb4-3" edge="1">
          <mxGeometry relative="1" as="geometry">
            <Array as="points">
              <mxPoint x="403" y="188" />
              <mxPoint x="403" y="188" />
            </Array>
          </mxGeometry>
        </mxCell>
        <mxCell id="v_JSXn-3_ZmPDUQv6Gb4-1" value="Bắt đầu" style="ellipse;whiteSpace=wrap;html=1;" parent="1" vertex="1">
          <mxGeometry x="340" y="111" width="120" height="53" as="geometry" />
        </mxCell>
        <mxCell id="v_JSXn-3_ZmPDUQv6Gb4-2" value="Nhập a và d" style="shape=parallelogram;perimeter=parallelogramPerimeter;whiteSpace=wrap;html=1;fixedSize=1;" parent="1" vertex="1">
          <mxGeometry x="346" y="207" width="120" height="42" as="geometry" />
        </mxCell>
        <mxCell id="v_JSXn-3_ZmPDUQv6Gb4-6" value="" style="edgeStyle=orthogonalEdgeStyle;rounded=0;orthogonalLoop=1;jettySize=auto;html=1;" parent="1" source="v_JSXn-3_ZmPDUQv6Gb4-3" target="v_JSXn-3_ZmPDUQv6Gb4-5" edge="1">
          <mxGeometry relative="1" as="geometry" />
        </mxCell>
        <mxCell id="v_JSXn-3_ZmPDUQv6Gb4-7" value="No" style="edgeLabel;html=1;align=center;verticalAlign=middle;resizable=0;points=[];" parent="v_JSXn-3_ZmPDUQv6Gb4-6" connectable="0" vertex="1">
          <mxGeometry x="0.0138" y="1" relative="1" as="geometry">
            <mxPoint as="offset" />
          </mxGeometry>
        </mxCell>
        <mxCell id="v_JSXn-3_ZmPDUQv6Gb4-10" value="" style="edgeStyle=orthogonalEdgeStyle;rounded=0;orthogonalLoop=1;jettySize=auto;html=1;" parent="1" source="v_JSXn-3_ZmPDUQv6Gb4-3" edge="1">
          <mxGeometry relative="1" as="geometry">
            <mxPoint x="403" y="425" as="targetPoint" />
          </mxGeometry>
        </mxCell>
        <mxCell id="v_JSXn-3_ZmPDUQv6Gb4-16" value="Yes" style="edgeLabel;html=1;align=center;verticalAlign=middle;resizable=0;points=[];" parent="v_JSXn-3_ZmPDUQv6Gb4-10" connectable="0" vertex="1">
          <mxGeometry x="-0.0114" y="1" relative="1" as="geometry">
            <mxPoint as="offset" />
          </mxGeometry>
        </mxCell>
        <mxCell id="v_JSXn-3_ZmPDUQv6Gb4-3" value="Kiểm tra a == 0 ?" style="rounded=0;whiteSpace=wrap;html=1;" parent="1" vertex="1">
          <mxGeometry x="343" y="286" width="120" height="43" as="geometry" />
        </mxCell>
        <mxCell id="v_JSXn-3_ZmPDUQv6Gb4-9" value="" style="edgeStyle=orthogonalEdgeStyle;rounded=0;orthogonalLoop=1;jettySize=auto;html=1;" parent="1" source="v_JSXn-3_ZmPDUQv6Gb4-5" target="v_JSXn-3_ZmPDUQv6Gb4-8" edge="1">
          <mxGeometry relative="1" as="geometry" />
        </mxCell>
        <mxCell id="v_JSXn-3_ZmPDUQv6Gb4-5" value="Giải x=-d/a" style="rhombus;whiteSpace=wrap;html=1;" parent="1" vertex="1">
          <mxGeometry x="521" y="280.5" width="114" height="54" as="geometry" />
        </mxCell>
        <mxCell id="v_JSXn-3_ZmPDUQv6Gb4-8" value="Kết thúc" style="ellipse;whiteSpace=wrap;html=1;" parent="1" vertex="1">
          <mxGeometry x="682" y="280.5" width="98" height="54" as="geometry" />
        </mxCell>
        <mxCell id="v_JSXn-3_ZmPDUQv6Gb4-17" value="Kiểm tra d ?" style="rounded=0;whiteSpace=wrap;html=1;" parent="1" vertex="1">
          <mxGeometry x="343" y="394" width="108" height="34" as="geometry" />
        </mxCell>
        <mxCell id="v_JSXn-3_ZmPDUQv6Gb4-18" value="Vô số nghiệm&amp;nbsp;" style="rhombus;whiteSpace=wrap;html=1;" parent="1" vertex="1">
          <mxGeometry x="230" y="478" width="142" height="79" as="geometry" />
        </mxCell>
        <mxCell id="v_JSXn-3_ZmPDUQv6Gb4-19" value="Không có nghiệm&amp;nbsp;" style="rhombus;whiteSpace=wrap;html=1;" parent="1" vertex="1">
          <mxGeometry x="468" y="474" width="132" height="73" as="geometry" />
        </mxCell>
        <mxCell id="v_JSXn-3_ZmPDUQv6Gb4-21" value="" style="endArrow=classic;html=1;rounded=0;entryX=0.333;entryY=0.214;entryDx=0;entryDy=0;entryPerimeter=0;exitX=0.5;exitY=1;exitDx=0;exitDy=0;" parent="1" source="v_JSXn-3_ZmPDUQv6Gb4-17" target="v_JSXn-3_ZmPDUQv6Gb4-19" edge="1">
          <mxGeometry width="50" height="50" relative="1" as="geometry">
            <mxPoint x="404" y="452" as="sourcePoint" />
            <mxPoint x="436" y="396" as="targetPoint" />
          </mxGeometry>
        </mxCell>
        <mxCell id="v_JSXn-3_ZmPDUQv6Gb4-28" value="No" style="edgeLabel;html=1;align=center;verticalAlign=middle;resizable=0;points=[];" parent="v_JSXn-3_ZmPDUQv6Gb4-21" connectable="0" vertex="1">
          <mxGeometry x="0.0167" relative="1" as="geometry">
            <mxPoint as="offset" />
          </mxGeometry>
        </mxCell>
        <mxCell id="v_JSXn-3_ZmPDUQv6Gb4-22" value="" style="endArrow=classic;html=1;rounded=0;entryX=0.5;entryY=0;entryDx=0;entryDy=0;exitX=0.5;exitY=1;exitDx=0;exitDy=0;" parent="1" source="v_JSXn-3_ZmPDUQv6Gb4-17" target="v_JSXn-3_ZmPDUQv6Gb4-18" edge="1">
          <mxGeometry width="50" height="50" relative="1" as="geometry">
            <mxPoint x="386" y="446" as="sourcePoint" />
            <mxPoint x="436" y="396" as="targetPoint" />
          </mxGeometry>
        </mxCell>
        <mxCell id="v_JSXn-3_ZmPDUQv6Gb4-29" value="Yes" style="edgeLabel;html=1;align=center;verticalAlign=middle;resizable=0;points=[];" parent="v_JSXn-3_ZmPDUQv6Gb4-22" connectable="0" vertex="1">
          <mxGeometry x="0.0061" y="4" relative="1" as="geometry">
            <mxPoint x="-1" as="offset" />
          </mxGeometry>
        </mxCell>
        <mxCell id="v_JSXn-3_ZmPDUQv6Gb4-23" value="Kết thúc&amp;nbsp;" style="ellipse;whiteSpace=wrap;html=1;" parent="1" vertex="1">
          <mxGeometry x="346" y="585" width="120" height="49" as="geometry" />
        </mxCell>
        <mxCell id="v_JSXn-3_ZmPDUQv6Gb4-25" value="" style="endArrow=classic;html=1;rounded=0;entryX=1;entryY=0.5;entryDx=0;entryDy=0;exitX=0.5;exitY=1;exitDx=0;exitDy=0;" parent="1" source="v_JSXn-3_ZmPDUQv6Gb4-19" target="v_JSXn-3_ZmPDUQv6Gb4-23" edge="1">
          <mxGeometry width="50" height="50" relative="1" as="geometry">
            <mxPoint x="502" y="547" as="sourcePoint" />
            <mxPoint x="576" y="573" as="targetPoint" />
          </mxGeometry>
        </mxCell>
        <mxCell id="v_JSXn-3_ZmPDUQv6Gb4-26" value="" style="endArrow=classic;html=1;rounded=0;exitX=0.5;exitY=1;exitDx=0;exitDy=0;entryX=0;entryY=0.5;entryDx=0;entryDy=0;" parent="1" source="v_JSXn-3_ZmPDUQv6Gb4-18" target="v_JSXn-3_ZmPDUQv6Gb4-23" edge="1">
          <mxGeometry width="50" height="50" relative="1" as="geometry">
            <mxPoint x="296" y="624" as="sourcePoint" />
            <mxPoint x="346" y="574" as="targetPoint" />
          </mxGeometry>
        </mxCell>
      </root>
    </mxGraphModel>
  </diagram>
</mxfile>
